<svg width="52" height="52" viewBox="0 0 52 52" fill="none" xmlns="http://www.w3.org/2000/svg">
<rect width="52" height="52" fill="white" fill-opacity="0.01"/>
<mask id="mask0_6676_5264" style="mask-type:luminance" maskUnits="userSpaceOnUse" x="1" y="3" width="50" height="46">
<path d="M48.75 29.25H45.5V6.5H4.875V3.25H45.5C47.2924 3.25 48.75 4.70762 48.75 6.5V29.25ZM27.625 48.75H6.5C4.70762 48.75 3.25 47.2924 3.25 45.5V9.75H6.5V45.5H27.625V48.75ZM32.5 32.5H35.75V35.75H32.5V32.5ZM45.5 32.5H48.75V35.75H45.5V32.5ZM45.5 39H48.75V42.25H45.5V39ZM45.5 45.5H48.75V48.75H45.5V45.5ZM32.5 45.5H35.75V48.75H32.5V45.5ZM39 39H42.25V42.25H39V39Z" fill="white"/>
<path d="M50.375 8.125V30.875H42.25V8.125H50.375Z" fill="url(#paint0_linear_6676_5264)"/>
<path d="M1.625 30.875L1.625 8.125H9.75L9.75 30.875H1.625Z" fill="url(#paint1_linear_6676_5264)"/>
</mask>
<g mask="url(#mask0_6676_5264)">
<path d="M0 0H52V52H0V0Z" fill="url(#paint2_linear_6676_5264)"/>
</g>
<path d="M37.245 24.375C36.975 22.4972 36.2362 20.7178 35.0967 19.201L37.3799 16.9179L35.0821 14.6201L32.799 16.9033C31.2819 15.7644 29.5026 15.0256 27.625 14.755V11.375H24.375V14.755C22.4972 15.025 20.7178 15.7638 19.201 16.9033L17.2023 14.9045L16.9146 14.6169L14.6169 16.9146L14.9045 17.2023L16.9033 19.201C15.7647 20.7183 15.026 22.4975 14.755 24.375H11.375V27.625H14.755C15.025 29.5028 15.7638 31.2822 16.9033 32.799L14.651 35.0512L16.9488 37.349L19.201 35.0967C20.7181 36.2356 22.4974 36.9744 24.375 37.245V40.625H27.625V33.9609C26.4447 34.2 25.2261 34.1741 24.057 33.885C22.888 33.5959 21.7977 33.0509 20.8649 32.2892C19.932 31.5276 19.18 30.5683 18.6629 29.4807C18.1459 28.3931 17.8768 27.2043 17.875 26C17.875 21.5199 21.5199 17.875 26 17.875C27.2043 17.8768 28.3931 18.1459 29.4807 18.6629C30.5683 19.18 31.5276 19.932 32.2892 20.8649C33.0509 21.7977 33.5959 22.888 33.885 24.057C34.1741 25.2261 34.2 26.4447 33.9609 27.625H40.625V24.375H37.245Z" fill="#001D6C"/>
<defs>
<linearGradient id="paint0_linear_6676_5264" x1="46.3125" y1="8.125" x2="46.3125" y2="30.875" gradientUnits="userSpaceOnUse">
<stop offset="0.1" stop-opacity="0"/>
<stop offset="0.924"/>
</linearGradient>
<linearGradient id="paint1_linear_6676_5264" x1="5.6875" y1="30.875" x2="5.6875" y2="8.125" gradientUnits="userSpaceOnUse">
<stop offset="0.1" stop-opacity="0"/>
<stop offset="0.916"/>
</linearGradient>
<linearGradient id="paint2_linear_6676_5264" x1="52" y1="0" x2="0" y2="52" gradientUnits="userSpaceOnUse">
<stop offset="0.1" stop-color="#8A3FFC"/>
<stop offset="0.9" stop-color="#EE5396"/>
</linearGradient>
</defs>
</svg>
