<svg height="32" viewBox="0 0 32 32" width="32" xmlns="http://www.w3.org/2000/svg"><path d="m24.5805 13.65a9.7327 9.7327 0 0 0 -18.2945 3.8887 6.75 6.75 0 0 0 .714 13.4613h16a8.7465 8.7465 0 0 0 1.5805-17.35zm-1.5805 15.85h-16a5.2373 5.2373 0 0 1 -.6993-10.4293 9.7265 9.7265 0 0 0 1.1036 3.7838.75.75 0 1 0 1.3213-.709 8.25 8.25 0 0 1 14.0264-8.6322 8.754 8.754 0 0 0 -6.315 2.95.75.75 0 1 0 1.1245.9922 7.25 7.25 0 1 1 5.4385 12.0445z"/><path d="m31.8983 10.2548a.7582.7582 0 0 0 -1.0364-.2776l-3.02 1.7438a.7587.7587 0 1 0 .7581 1.314l3.02-1.7438a.7589.7589 0 0 0 .2783-1.0364z"/><path d="m22.6764 7.87a.7583.7583 0 0 0 1.0364-.2776l1.7438-3.02a.7587.7587 0 0 0 -1.314-.7588l-1.7438 3.02a.7588.7588 0 0 0 .2776 1.0364z"/><path d="m16 6.0811a.759.759 0 0 0 .7588-.7588v-3.4876a.7588.7588 0 1 0 -1.5175 0v3.4876a.7589.7589 0 0 0 .7587.7588z"/><path d="m8.2873 7.5922a.7587.7587 0 0 0 1.314-.7588l-1.7438-3.02a.7587.7587 0 1 0 -1.314.7588z"/><path d="m4.1585 11.721-3.02-1.7438a.7587.7587 0 1 0 -.7588 1.314l3.0203 1.7438a.7587.7587 0 1 0 .7588-1.314z"/><path d="m0 0h32v32h-32z" fill="none"/></svg>